<?xml version="1.0" encoding="utf-8"?><!-- Uploaded to: SVG Repo, www.svgrepo.com, Generator: SVG Repo Mixer Tools -->
<svg width="800px" height="800px" viewBox="0 -0.5 25 25" fill="none" xmlns="http://www.w3.org/2000/svg">
<path d="M10.7452 16.2194C10.995 15.889 10.9298 15.4186 10.5994 15.1688C10.269 14.919 9.79864 14.9842 9.54879 15.3146L10.7452 16.2194ZM6.72579 19.0476C6.47595 19.378 6.54124 19.8484 6.87162 20.0982C7.202 20.3481 7.67236 20.2828 7.92221 19.9524L6.72579 19.0476ZM6.574 19.5C6.574 19.9142 6.90979 20.25 7.324 20.25C7.73821 20.25 8.074 19.9142 8.074 19.5H6.574ZM8.074 5.5C8.074 5.08579 7.73821 4.75 7.324 4.75C6.90979 4.75 6.574 5.08579 6.574 5.5H8.074ZM6.72587 19.9525C6.97577 20.2828 7.44614 20.348 7.77648 20.0981C8.10682 19.8482 8.17203 19.3779 7.92213 19.0475L6.72587 19.9525ZM5.09813 15.3145C4.84823 14.9842 4.37786 14.919 4.04752 15.1689C3.71718 15.4188 3.65197 15.8891 3.90187 16.2195L5.09813 15.3145ZM11.088 4.75C10.6738 4.75 10.338 5.08579 10.338 5.5C10.338 5.91421 10.6738 6.25 11.088 6.25V4.75ZM20.5 6.25C20.9142 6.25 21.25 5.91421 21.25 5.5C21.25 5.08579 20.9142 4.75 20.5 4.75V6.25ZM11.088 7.55C10.6738 7.55 10.338 7.88579 10.338 8.3C10.338 8.71421 10.6738 9.05 11.088 9.05V7.55ZM18.617 9.05C19.0312 9.05 19.367 8.71421 19.367 8.3C19.367 7.88579 19.0312 7.55 18.617 7.55V9.05ZM11.088 10.35C10.6738 10.35 10.338 10.6858 10.338 11.1C10.338 11.5142 10.6738 11.85 11.088 11.85V10.35ZM16.735 11.85C17.1492 11.85 17.485 11.5142 17.485 11.1C17.485 10.6858 17.1492 10.35 16.735 10.35V11.85ZM9.54879 15.3146L6.72579 19.0476L7.92221 19.9524L10.7452 16.2194L9.54879 15.3146ZM8.074 19.5V5.5H6.574V19.5H8.074ZM7.92213 19.0475L5.09813 15.3145L3.90187 16.2195L6.72587 19.9525L7.92213 19.0475ZM11.088 6.25H20.5V4.75H11.088V6.25ZM11.088 9.05H18.617V7.55H11.088V9.05ZM11.088 11.85H16.735V10.35H11.088V11.85Z" fill="#000000"/>
</svg>